<?xml version="1.0" encoding="utf-8"?>
<!-- Generator: Adobe Illustrator 15.0.0, SVG Export Plug-In . SVG Version: 6.00 Build 0)  -->
<!DOCTYPE svg PUBLIC "-//W3C//DTD SVG 1.1//EN" "http://www.w3.org/Graphics/SVG/1.1/DTD/svg11.dtd">
<svg version="1.1"  xmlns="http://www.w3.org/2000/svg" xmlns:xlink="http://www.w3.org/1999/xlink" x="0px" y="0px"
	 width="48px" height="48px" viewBox="0 0 48 48" enable-background="new 0 0 48 48" xml:space="preserve">
<path fill="none" stroke="#9FA8DA" stroke-width="2" d="M40,16v16c0,0,0,2-2,2s-4,0-4,0"/>
<path fill="#7986CB" d="M37,37c0,0.553-0.447,1-1,1h-5c-0.553,0-1-0.447-1-1v-6c0-0.553,0.447-1,1-1h5c0.553,0,1,0.447,1,1V37z"/>
<g>
	<path fill="#F44336" d="M20.5,4C12.491,4,6,10.492,6,18.5V43c0,0.553,0.447,1,1,1h27c0.553,0,1-0.447,1-1V18.5
		C35,10.492,28.508,4,20.5,4z"/>
	<circle fill="#F44336" cx="40" cy="15" r="2"/>
</g>
<path fill="none" stroke="#BF2202" stroke-width="3" stroke-linecap="round" d="M32,41H9.06L9,18.471C9,12.137,14.136,7,20.471,7
	l0,0c6.333,0,11.47,5.137,11.47,11.471L32,41z"/>
<g>
	<path fill="#5D4037" d="M28,28c0,1.104-0.896,2-2,2H15c-1.104,0-2-0.896-2-2V17c0-1.104,0.896-2,2-2h11c1.104,0,2,0.896,2,2V28z"/>
	<rect x="13" y="33" fill="#5D4037" width="15" height="4"/>
</g>
<rect x="13" y="33" fill="#3E2723" width="15" height="2"/>
<g>
	<path fill="#FFF9C4" d="M26,27c0,0.553-0.447,1-1,1h-1c-0.553,0-1-0.447-1-1v-9c0-0.553,0.447-1,1-1h1c0.553,0,1,0.447,1,1V27z"/>
	<path fill="#FFF9C4" d="M22,27c0,0.553-0.447,1-1,1h-1c-0.553,0-1-0.447-1-1v-9c0-0.553,0.447-1,1-1h1c0.553,0,1,0.447,1,1V27z"/>
	<path fill="#FFF9C4" d="M18,27c0,0.553-0.447,1-1,1h-1c-0.553,0-1-0.447-1-1v-9c0-0.553,0.447-1,1-1h1c0.553,0,1,0.447,1,1V27z"/>
</g>
<g>
	<path fill="#FFF9C4" d="M11.669,12.818l0.125-0.189c0.309-0.458,0.189-1.079-0.269-1.389c-0.458-0.308-1.079-0.188-1.389,0.269
		l-0.15,0.228c-0.299,0.464-0.165,1.083,0.3,1.382c0.167,0.108,0.355,0.159,0.54,0.159C11.156,13.277,11.478,13.115,11.669,12.818z"
		/>
	<path fill="#FFF9C4" d="M15.478,7.05L15.23,7.163c-0.5,0.234-0.716,0.829-0.482,1.329c0.17,0.364,0.53,0.577,0.906,0.577
		c0.142,0,0.286-0.03,0.423-0.094l0.205-0.093c0.506-0.222,0.736-0.812,0.514-1.317S15.984,6.828,15.478,7.05z"/>
	<path fill="#FFF9C4" d="M9,39.876c-0.552,0-1,0.447-1,1v0.125c0.247,0.969,1,1,1,1h0.125c0.552,0,1-0.447,1-1
		c0-0.308-0.139-0.583-0.358-0.767C9.583,40.016,9.308,39.876,9,39.876z"/>
	<path fill="#FFF9C4" d="M9.856,14.024c-0.529-0.172-1.089,0.121-1.258,0.646l-0.079,0.256c-0.159,0.529,0.141,1.087,0.669,1.246
		c0.096,0.029,0.193,0.043,0.289,0.043c0.43,0,0.827-0.28,0.957-0.712l0.068-0.221C10.671,14.756,10.382,14.193,9.856,14.024z"/>
	<path fill="#FFF9C4" d="M15.697,40.001h-0.253c-0.552,0-1,0.447-1,1s0.448,1,1,1h0.253c0.552,0,1-0.447,1-1
		S16.25,40.001,15.697,40.001z"/>
	<path fill="#FFF9C4" d="M12.411,40.001h-0.252c-0.552,0-1,0.447-1,1s0.448,1,1,1h0.252c0.552,0,1-0.447,1-1
		S12.963,40.001,12.411,40.001z"/>
	<path fill="#FFF9C4" d="M18.983,40.001H18.73c-0.552,0-1,0.447-1,1s0.448,1,1,1h0.253c0.552,0,1-0.447,1-1
		S19.536,40.001,18.983,40.001z"/>
	<path fill="#FFF9C4" d="M9,38.881c0.552,0,1-0.447,1-1v-0.25c0-0.553-0.448-1-1-1s-1,0.447-1,1v0.25
		C8,38.434,8.448,38.881,9,38.881z"/>
	<path fill="#FFF9C4" d="M9,35.636c0.552,0,1-0.447,1-1v-0.249c0-0.553-0.448-1-1-1s-1,0.447-1,1v0.249
		C8,35.188,8.448,35.636,9,35.636z"/>
	<path fill="#FFF9C4" d="M9,22.657c0.552,0,1-0.448,1-1v-0.25c0-0.552-0.448-1-1-1s-1,0.448-1,1v0.25
		C8,22.209,8.448,22.657,9,22.657z"/>
	<path fill="#FFF9C4" d="M30.995,18.174l0.004,0.214c0,0.552,0.447,1,1,1s1-0.448,1-1c0-0.095-0.002-0.189-0.006-0.284
		c-0.02-0.553-0.522-0.979-1.034-0.964C31.407,17.159,30.976,17.623,30.995,18.174z"/>
	<path fill="#FFF9C4" d="M8.995,19.412c0.002,0,0.004,0,0.006,0c0.55,0,0.997-0.444,1-0.994l0.004-0.226
		c0.016-0.552-0.418-1.013-0.97-1.029c-0.534-0.027-1.012,0.418-1.029,0.97L8,18.406C7.997,18.958,8.442,19.409,8.995,19.412z"/>
	<path fill="#FFF9C4" d="M9,32.392c0.552,0,1-0.447,1-1v-0.25c0-0.553-0.448-1-1-1s-1,0.447-1,1v0.25
		C8,31.944,8.448,32.392,9,32.392z"/>
	<path fill="#FFF9C4" d="M9,29.146c0.552,0,1-0.447,1-1v-0.25c0-0.553-0.448-1-1-1s-1,0.447-1,1v0.25
		C8,28.699,8.448,29.146,9,29.146z"/>
	<path fill="#FFF9C4" d="M9,25.901c0.552,0,1-0.447,1-1v-0.25c0-0.552-0.448-1-1-1s-1,0.448-1,1v0.25
		C8,25.454,8.448,25.901,9,25.901z"/>
	<path fill="#FFF9C4" d="M12.494,8.9l-0.208,0.178c-0.416,0.364-0.458,0.995-0.094,1.411c0.198,0.226,0.475,0.341,0.753,0.341
		c0.233,0,0.468-0.082,0.658-0.248l0.17-0.146c0.424-0.353,0.482-0.983,0.129-1.408C13.548,8.604,12.919,8.546,12.494,8.9z"/>
	<path fill="#FFF9C4" d="M32,33.362c-0.553,0-1,0.447-1,1v0.25c0,0.553,0.447,1,1,1s1-0.447,1-1v-0.25
		C33,33.81,32.553,33.362,32,33.362z"/>
	<path fill="#FFF9C4" d="M32,36.607c-0.553,0-1,0.447-1,1v0.25c0,0.553,0.447,1,1,1s1-0.447,1-1v-0.25
		C33,37.055,32.553,36.607,32,36.607z"/>
	<path fill="#FFF9C4" d="M32,39.876c-0.308,0-0.583,0.14-0.767,0.358c-0.219,0.184-0.358,0.459-0.358,0.767c0,0.553,0.447,1,1,1H32
		c0,0,0.753-0.031,1-1v-0.125C33,40.323,32.553,39.876,32,39.876z"/>
	<path fill="#FFF9C4" d="M32,30.118c-0.553,0-1,0.447-1,1v0.249c0,0.553,0.447,1,1,1s1-0.447,1-1v-0.249
		C33,30.565,32.553,30.118,32,30.118z"/>
	<path fill="#FFF9C4" d="M32,23.628c-0.553,0-1,0.448-1,1v0.25c0,0.553,0.447,1,1,1s1-0.447,1-1v-0.25
		C33,24.076,32.553,23.628,32,23.628z"/>
	<path fill="#FFF9C4" d="M32,20.384c-0.553,0-1,0.448-1,1v0.25c0,0.552,0.447,1,1,1s1-0.448,1-1v-0.25
		C33,20.832,32.553,20.384,32,20.384z"/>
	<path fill="#FFF9C4" d="M32,26.873c-0.553,0-1,0.447-1,1v0.25c0,0.553,0.447,1,1,1s1-0.447,1-1v-0.25
		C33,27.32,32.553,26.873,32,26.873z"/>
	<path fill="#FFF9C4" d="M31.517,16.192c0.097,0,0.195-0.015,0.293-0.044c0.528-0.162,0.825-0.721,0.663-1.25l-0.078-0.25
		c-0.168-0.525-0.729-0.815-1.258-0.646c-0.525,0.169-0.815,0.732-0.646,1.258l0.07,0.226
		C30.692,15.916,31.089,16.192,31.517,16.192z"/>
	<path fill="#FFF9C4" d="M22.27,40.001h-0.253c-0.552,0-1,0.447-1,1s0.448,1,1,1h0.253c0.552,0,1-0.447,1-1
		S22.822,40.001,22.27,40.001z"/>
	<path fill="#FFF9C4" d="M24.697,8.873l0.209,0.094c0.136,0.063,0.278,0.092,0.418,0.092c0.378,0,0.74-0.215,0.909-0.581
		c0.231-0.501,0.013-1.096-0.489-1.327L25.496,7.04c-0.507-0.223-1.097,0.011-1.316,0.517C23.959,8.063,24.191,8.652,24.697,8.873z"
		/>
	<path fill="#FFF9C4" d="M18.865,6.106l-0.271,0.039c-0.546,0.084-0.92,0.595-0.835,1.141c0.077,0.494,0.502,0.847,0.987,0.847
		c0.051,0,0.103-0.004,0.154-0.012l0.223-0.032c0.548-0.071,0.934-0.573,0.863-1.121C19.915,6.421,19.409,6.03,18.865,6.106z"/>
	<path fill="#FFF9C4" d="M30.998,11.713l-0.15-0.227c-0.31-0.456-0.932-0.575-1.389-0.264c-0.457,0.311-0.575,0.933-0.264,1.39
		l0.125,0.188c0.191,0.295,0.512,0.456,0.84,0.456c0.187,0,0.375-0.052,0.543-0.161C31.166,12.796,31.299,12.177,30.998,11.713z"/>
	<path fill="#FFF9C4" d="M21.851,8.086l0.229,0.032c0.05,0.007,0.099,0.011,0.148,0.011c0.487,0,0.914-0.356,0.988-0.853
		c0.081-0.546-0.296-1.055-0.842-1.136l-0.265-0.037c-0.536-0.073-1.049,0.314-1.121,0.863C20.917,7.513,21.303,8.015,21.851,8.086z
		"/>
	<path fill="#FFF9C4" d="M28.842,40.001h-0.253c-0.553,0-1,0.447-1,1s0.447,1,1,1h0.253c0.553,0,1-0.447,1-1
		S29.395,40.001,28.842,40.001z"/>
	<path fill="#FFF9C4" d="M25.556,40.001h-0.253c-0.552,0-1,0.447-1,1s0.448,1,1,1h0.253c0.553,0,1-0.447,1-1
		S26.108,40.001,25.556,40.001z"/>
	<path fill="#FFF9C4" d="M28.793,10.475c0.363-0.416,0.321-1.047-0.095-1.411l-0.212-0.18c-0.427-0.351-1.056-0.29-1.408,0.134
		c-0.352,0.426-0.291,1.056,0.135,1.408l0.169,0.143c0.189,0.166,0.424,0.248,0.658,0.248
		C28.318,10.816,28.595,10.701,28.793,10.475z"/>
</g>
</svg>
