<?xml version="1.0" encoding="utf-8"?>
<!-- Generator: Adobe Illustrator 19.1.1, SVG Export Plug-In . SVG Version: 6.00 Build 0)  -->
<svg version="1.1"  xmlns="http://www.w3.org/2000/svg" xmlns:xlink="http://www.w3.org/1999/xlink" x="0px" y="0px"
	 viewBox="0 0 48 48" enable-background="new 0 0 48 48" xml:space="preserve">
<path fill="#FF1744" d="M37.5,3H31v38v1h9V5.5C40,4.1,38.9,3,37.5,3z"/>
<path fill="#C5CAE9" d="M10.5,3C9.1,3,8,4.1,8,5.5V42h23V3H10.5z"/>
<path fill="#455A64" d="M26,38H13c-0.6,0-1-0.5-1-1v-4c0-0.5,0.4-1,1-1h13c0.5,0,1,0.5,1,1v4C27,37.5,26.5,38,26,38z"/>
<path fill="#263238" d="M27,29H12V7h15V29z M27,35v-2c0-0.5-0.5-1-1-1H13c-0.5,0-1,0.5-1,1v2H27z"/>
<polygon fill="#37474F" points="8,40 8,41 8,42 8,45 11,45 12,42 36,42 37,45 40,45 40,42 40,41 40,40 "/>
<path fill="#37474F" d="M37.2,23h-3.4c-0.4,0-0.8-0.3-0.8-0.8v-9.4c0-0.4,0.3-0.8,0.8-0.8h3.4c0.4,0,0.8,0.3,0.8,0.8v9.4
	C37.9,22.7,37.6,23,37.2,23z M38,25.6c0-0.3-0.3-0.6-0.6-0.6h-3.8c-0.3,0-0.6,0.3-0.6,0.6V29h5C38,29,38,25.6,38,25.6z"/>
<path fill="#263238" d="M38,25.6c0-0.3-0.3-0.6-0.6-0.6h-3.8c-0.3,0-0.6,0.3-0.6,0.6V27h5C38,27,38,25.6,38,25.6z"/>
<path fill="#FFC400" d="M17.2,38l-0.4-2l5-1l0.4,2L17.2,38z M16,9h-2v5h2V9z M16,23h-2v4h2V23z"/>
<path fill="#FFF59D" d="M25,21h-2v-5h2V21z M19,9h-2v5h2V9z"/>
<path fill="#FDD835" d="M22,14h-2V9h2V14z M25,9h-2v5h2V9z M19,16h-2v5h2V16z M22,23h-2v4h2V23z"/>
<path fill="#EF6C00" d="M22,21h-2v-5h2V21z M16,16h-2v5h2V16z"/>
<path fill="#FF9800" d="M25,27h-2v-4h2V27z M19,23h-2v4h2V23z"/>
</svg>
