<?xml version="1.0" encoding="utf-8"?>
<!-- Generator: Adobe Illustrator 15.0.0, SVG Export Plug-In . SVG Version: 6.00 Build 0)  -->
<!DOCTYPE svg PUBLIC "-//W3C//DTD SVG 1.1//EN" "http://www.w3.org/Graphics/SVG/1.1/DTD/svg11.dtd">
<svg version="1.1"  xmlns="http://www.w3.org/2000/svg" xmlns:xlink="http://www.w3.org/1999/xlink" x="0px" y="0px"
	 width="48px" height="48px" viewBox="0 0 48 48" enable-background="new 0 0 48 48" xml:space="preserve">
<g>
	<polygon fill="#FF9800" points="12,42 8,42 10,35 14,35 	"/>
	<polygon fill="#FF9800" points="36,42 40,42 38,35 34,35 	"/>
</g>
<rect x="6" y="17" fill="#CE93D8" width="36" height="19"/>
<path fill="#9C27B0" d="M37,27c0,1.657-1.343,3-3,3H14c-1.657,0-3-1.343-3-3V9c0-1.657,1.343-3,3-3h20c1.657,0,3,1.343,3,3V27z"/>
<path fill="#E1BEE7" d="M37,30H11v-5c0-1.104,0.896-2,2-2h22c1.104,0,2,0.896,2,2V30z"/>
</svg>
