<?xml version="1.0" encoding="utf-8"?>
<!-- Generator: Adobe Illustrator 19.1.1, SVG Export Plug-In . SVG Version: 6.00 Build 0)  -->
<svg version="1.1"  xmlns="http://www.w3.org/2000/svg" xmlns:xlink="http://www.w3.org/1999/xlink" x="0px" y="0px"
	 viewBox="0 0 48 48" enable-background="new 0 0 48 48" xml:space="preserve">
<path fill="#FFA000" d="M42,41H6V3h36V41z"/>
<path fill="#5D4037" d="M30,19v6c0,0.6-0.4,1-1,1c-0.6,0-1-0.4-1-1v-6c0-0.6,0.4-1,1-1C29.6,18,30,18.4,30,19z M19,18
	c-0.6,0-1,0.4-1,1v6c0,0.6,0.4,1,1,1c0.6,0,1-0.4,1-1v-6C20,18.4,19.6,18,19,18z"/>
<path fill="#EF6C00" d="M25,41V3h-2v38H6v2v2h4v-0.4c0-1.2,0.4-1.6,1.6-1.6h24.8c1.2,0,1.6,0.4,1.6,1.6V45h4v-2v-2H25z"/>
</svg>
